<?xml version="1.0" standalone="no"?>
<!DOCTYPE svg PUBLIC "-//W3C//DTD SVG 20010904//EN"
 "http://www.w3.org/TR/2001/REC-SVG-20010904/DTD/svg10.dtd">
<svg version="1.0" xmlns="http://www.w3.org/2000/svg"
 width="200.000000pt" height="200.000000pt" viewBox="0 0 200.000000 200.000000"
 preserveAspectRatio="xMidYMid meet">

<g transform="translate(0.000000,200.000000) scale(0.100000,-0.100000)"
fill="#000000" stroke="none">
<path d="M911 1447 c-11 -27 -107 -117 -126 -117 -24 0 -40 -30 -27 -50 9 -15
6 -31 -18 -84 -17 -36 -39 -70 -50 -76 -20 -11 -27 -44 -11 -54 12 -8 1 -148
-15 -170 -7 -10 -10 -25 -7 -32 6 -16 44 -19 58 -5 17 16 249 18 268 3 9 -8
25 -11 35 -8 18 6 53 -5 129 -41 41 -19 60 -12 69 24 10 41 64 147 80 156 18
10 18 53 0 60 -16 7 -38 156 -24 173 12 16 -1 44 -21 44 -9 1 -33 21 -54 45
-29 33 -36 50 -32 68 8 31 -16 51 -50 43 -28 -7 -155 22 -155 35 0 20 -41 8
-49 -14z m125 -33 c31 -9 54 -21 54 -29 0 -20 -70 -100 -88 -100 -15 0 -18 10
-45 118 -9 33 1 34 79 11z m-83 -74 c9 -36 12 -69 7 -74 -12 -12 -140 33 -140
49 0 17 102 107 111 97 3 -4 13 -36 22 -72z m225 -29 c23 -27 42 -52 42 -55 0
-8 -185 -8 -193 0 -10 10 74 104 93 104 9 0 36 -22 58 -49z m-292 -51 c32 -11
63 -25 68 -30 11 -11 -58 -120 -77 -120 -10 0 -67 138 -67 163 0 11 11 9 76
-13z m-65 -74 c31 -92 25 -108 -40 -96 -23 4 -47 12 -51 16 -8 8 49 153 60
154 3 0 16 -33 31 -74z m399 38 c0 -12 -83 -144 -90 -144 -7 0 -80 97 -104
138 -6 9 16 12 93 12 56 0 101 -3 101 -6z m-161 -88 c23 -33 41 -64 41 -69 0
-6 -24 -7 -62 -3 -105 12 -138 18 -138 27 0 17 71 108 88 112 21 5 21 4 71
-67z m196 -5 c9 -105 3 -116 -53 -91 -23 10 -42 24 -42 30 0 15 73 140 81 140
4 0 10 -36 14 -79z m-422 -71 c4 -4 -24 -40 -62 -81 l-70 -74 -1 74 c0 90 12
104 80 95 25 -4 49 -10 53 -14z m179 -11 c48 -7 88 -14 88 -18 0 -3 -17 -31
-38 -61 -23 -35 -43 -54 -52 -52 -19 5 -121 128 -113 136 8 8 12 8 115 -5z
m-84 -73 c28 -36 52 -69 52 -75 0 -7 -45 -11 -132 -11 l-131 0 19 23 c43 52
119 127 129 127 5 0 34 -29 63 -64z m307 34 c31 -12 31 -22 -3 -87 -19 -37
-31 -50 -40 -44 -15 9 -45 128 -36 143 6 10 32 6 79 -12z m-94 -42 c14 -48 17
-113 7 -123 -10 -10 -99 26 -105 42 -6 15 62 123 77 123 5 0 15 -19 21 -42z"/>
<path d="M100 625 c0 -77 2 -85 19 -85 15 0 21 8 23 32 2 22 9 34 21 36 14 3
17 -4 17 -32 0 -29 4 -36 20 -36 18 0 20 7 20 85 0 78 -2 85 -20 85 -16 0 -20
-7 -20 -35 0 -28 -4 -35 -20 -35 -16 0 -20 7 -20 35 0 28 -4 35 -20 35 -18 0
-20 -7 -20 -85z"/>
<path d="M752 701 c-8 -5 -12 -23 -10 -47 3 -34 6 -39 31 -42 15 -2 27 -9 27
-17 0 -11 -8 -13 -30 -8 -32 6 -41 -12 -18 -35 29 -29 98 -6 98 33 0 41 -11
55 -41 55 -29 0 -41 22 -19 35 6 3 10 1 10 -4 0 -6 11 -11 25 -11 27 0 33 18
13 38 -14 14 -67 16 -86 3z"/>
<path d="M1180 625 c0 -78 2 -85 20 -85 17 0 20 7 20 44 0 25 5 48 10 51 6 4
10 -13 10 -45 0 -48 2 -51 23 -48 18 2 23 10 25 45 4 54 -11 83 -43 83 -18 0
-25 5 -25 20 0 13 -7 20 -20 20 -18 0 -20 -7 -20 -85z"/>
<path d="M1600 694 c0 -10 7 -14 22 -12 32 5 35 28 4 28 -17 0 -26 -5 -26 -16z"/>
<path d="M1790 625 c0 -78 2 -85 20 -85 15 0 20 7 20 28 l1 27 15 -27 c8 -16
23 -28 34 -28 23 0 24 6 6 40 -12 21 -12 30 -1 57 13 32 13 33 -10 33 -16 0
-26 -8 -33 -27 -10 -26 -10 -24 -11 20 -1 40 -4 47 -21 47 -18 0 -20 -7 -20
-85z"/>
<path d="M867 681 c-9 -34 5 -116 21 -128 23 -19 42 -16 42 7 0 11 -4 20 -10
20 -14 0 -13 43 2 58 9 9 8 17 -2 37 -16 30 -46 33 -53 6z"/>
<path d="M247 664 c-12 -12 -8 -99 5 -112 25 -25 88 -11 88 19 0 20 -24 26
-35 9 -9 -15 -25 -12 -25 5 0 10 10 15 31 15 28 0 30 2 27 33 -3 30 -6 32 -43
35 -23 2 -44 0 -48 -4z m53 -34 c0 -5 -4 -10 -10 -10 -5 0 -10 5 -10 10 0 6 5
10 10 10 6 0 10 -4 10 -10z"/>
<path d="M360 604 c0 -57 2 -64 20 -64 17 0 20 7 20 44 0 61 18 68 22 9 3 -40
6 -48 23 -48 16 0 21 8 23 42 5 64 -9 81 -63 81 l-45 0 0 -64z"/>
<path d="M490 604 c0 -57 2 -64 20 -64 17 0 20 7 20 45 0 33 4 45 15 45 8 0
15 8 16 18 0 9 7 -5 16 -33 8 -27 20 -56 25 -62 8 -10 6 -13 -6 -13 -9 0 -16
-7 -16 -15 0 -16 27 -20 48 -6 7 4 21 40 32 79 l18 72 -23 0 c-19 0 -24 -6
-28 -32 l-3 -33 -8 32 c-8 32 -9 32 -67 32 l-59 -1 0 -64z"/>
<path d="M947 663 c-12 -11 -7 -100 6 -111 6 -6 30 -9 52 -9 l40 2 3 63 3 62
-49 0 c-27 0 -52 -3 -55 -7z m53 -53 c0 -16 -4 -30 -10 -30 -11 0 -14 43 -3
53 11 12 13 8 13 -23z"/>
<path d="M1072 658 c-17 -17 -15 -84 4 -102 20 -20 58 -20 78 0 25 24 19 37
-14 32 -28 -4 -30 -2 -29 26 0 17 3 25 6 19 5 -14 35 -18 46 -7 3 4 2 15 -4
25 -11 22 -68 26 -87 7z"/>
<path d="M1312 658 c-17 -17 -15 -84 4 -102 19 -20 68 -21 83 -2 7 8 11 36 9
63 l-3 48 -40 3 c-23 2 -46 -3 -53 -10z m58 -47 c0 -17 -4 -33 -10 -36 -6 -4
-10 8 -10 29 0 20 5 36 10 36 6 0 10 -13 10 -29z"/>
<path d="M1426 633 c14 -74 20 -88 41 -91 17 -3 22 4 28 35 8 39 9 38 19 -10
5 -22 12 -28 28 -25 17 2 24 13 30 43 4 22 10 50 13 63 4 17 1 22 -14 22 -14
0 -22 -10 -27 -32 l-8 -33 -5 30 c-4 21 -13 31 -29 33 -18 3 -22 -1 -22 -22 0
-14 -4 -26 -10 -26 -5 0 -10 11 -10 25 0 19 -5 25 -20 25 -19 0 -20 -4 -14
-37z"/>
<path d="M1600 605 c0 -58 2 -65 20 -65 18 0 20 7 20 65 0 58 -2 65 -20 65
-18 0 -20 -7 -20 -65z"/>
<path d="M1672 658 c-7 -7 -12 -31 -12 -55 0 -48 14 -60 70 -59 l35 1 3 63 3
62 -44 0 c-23 0 -48 -5 -55 -12z m45 -65 c-3 -10 -5 -2 -5 17 0 19 2 27 5 18
2 -10 2 -26 0 -35z"/>
</g>
</svg>
